<svg xmlns="http://www.w3.org/2000/svg" viewBox="0 0 1310 205.93723" fill="#650D85">
  <path d="M361.36716 53.14809a52.12745 52.12745 0 0 0-20.42359 4.13318A53.88021 53.88021 0 0 0 324.14509 68.5356a53.25206 53.25206 0 0 0-11.38635 16.6643 51.494 51.494 0 0 0-4.19959 20.35707V205.93723H329.119V143.25106a38.88966 38.88966 0 0 0 13.63926 10.14323 47.16059 47.16059 0 0 0 18.00477 3.96409 53.50251 53.50251 0 0 0 20.99813-3.72745 49.92061 49.92061 0 0 0 16.76163-11.05363 51.258 51.258 0 0 0 11.15392-16.696 55.16509 55.16509 0 0 0 4.0993-20.72686 52.50628 52.50628 0 0 0-4.03067-20.42564 50.14737 50.14737 0 0 0-11.05357-16.46041 51.513 51.513 0 0 0-16.62847-11.01985 55.059 55.059 0 0 0-20.69611-4.10043zM329.31854 105.7596a32.3527 32.3527 0 0 1 2.35229-12.49847 33.07245 33.07245 0 0 1 6.71883-10.41341 32.21174 32.21174 0 0 1 10.04588-7.12331A30.29954 30.29954 0 0 1 360.763 73.10579a33.38865 33.38865 0 0 1 12.59888 2.28373 32.15518 32.15518 0 0 1 10.44838 6.68494 30.725 30.725 0 0 1 7.02085 10.31311 32.86248 32.86248 0 0 1 2.385 13.1694 33.54083 33.54083 0 0 1-2.65432 12.86509 31.66947 31.66947 0 0 1-29.596 19.18444 30.71647 30.71647 0 0 1-12.26093-2.55278 31.946 31.946 0 0 1-16.865-17.00032 31.42767 31.42767 0 0 1-2.52133-12.2938zM475.19138 136.59888a30.98881 30.98881 0 0 1-12.42991-2.1168 32.14205 32.14205 0 0 1-10.41358-6.55075 31.51607 31.51607 0 0 1-7.156-10.04475 30.44575 30.44575 0 0 1-2.65433-12.53134A33.716 33.716 0 0 1 444.989 92.2535 31.9704 31.9704 0 0 1 475.19138 72.299a30.34317 30.34317 0 0 1 15.0831 3.89756 31.4235 31.4235 0 0 1 11.01883 10.41239 32.61631 32.61631 0 0 1-2.4526 38.97009 31.66387 31.66387 0 0 1-10.21077 7.794 32.827 32.827 0 0 1-13.43856 3.22586zm-53.21368-32.453a51.35456 51.35456 0 0 0 4.09929 20.42564 53.40808 53.40808 0 0 0 28.11831 28.18471 51.83569 51.83569 0 0 0 68.53127-28.1183 53.05665 53.05665 0 0 0 3.86373-20.29032 52.364 52.364 0 0 0-3.96409-20.19013A51.21155 51.21155 0 0 0 495.1459 56.54406a53.96344 53.96344 0 0 0-20.76155-4.1997 51.64661 51.64661 0 0 0-20.25768 3.99672 53.16807 53.16807 0 0 0-16.6623 11.154 52.30661 52.30661 0 0 0-11.32086 16.5292 51.08228 51.08228 0 0 0-4.16581 20.12156zM613.19922 83.78768L627.9148 70.6872a52.66294 52.66294 0 0 0-10.54868-9.33938 49.00174 49.00174 0 0 0-13.034-6.1822 54.44575 54.44575 0 0 0-15.5226-2.21721 52.83942 52.83942 0 0 0-20.22186 3.86379A53.46374 53.46374 0 0 0 551.7903 67.59439a52.19484 52.19484 0 0 0-11.5227 16.19329 50.09419 50.09419 0 0 0-4.469 19.95565 56.2437 56.2437 0 0 0 3.93032 21.56653 51.459 51.459 0 0 0 27.81622 28.22066A53.53823 53.53823 0 0 0 587.8029 157.763a54.65079 54.65079 0 0 0 15.8215-2.11566 51.46191 51.46191 0 0 0 13.43867-6.11682 54.67605 54.67605 0 0 0 10.85173-9.10375L613.402 126.31942a33.9238 33.9238 0 0 1-11.52258 8.56521 32.3973 32.3973 0 0 1-14.07655 2.51912 31.10558 31.10558 0 0 1-12.9348-2.88767 29.79 29.79 0 0 1-9.87486-7.45922 32.4 32.4 0 0 1-6.14946-10.78446 34.10251 34.10251 0 0 1-1.67831-12.73182 32.93277 32.93277 0 0 1 2.88778-12.06022 32.10559 32.10559 0 0 1 6.82015-9.84211 30.85131 30.85131 0 0 1 9.97833-6.51812 30.25988 30.25988 0 0 1 12.16064-2.217 34.80131 34.80131 0 0 1 9.30543 1.37617 30.03369 30.03369 0 0 1 7.86171 3.69789 42.54194 42.54194 0 0 1 7.01971 5.81047z"/>
  <polygon points="702.478 154.537 659.459 108.245 659.459 154.537 638.697 154.537 638.697 4.773 659.459 4.773 659.459 97.56 700.06 55.098 726.264 55.098 681.427 103.003 729.49 154.537 702.478 154.537 702.478 154.537"/>
  <path d="M774.64113 72.90315a34.23837 34.23837 0 0 0-13.16724 2.6881 29.62887 29.62887 0 0 0-10.347 7.32288 33.07723 33.07723 0 0 0-6.71973 11.55646h59.86468a24.69053 24.69053 0 0 0-3.62806-7.92817 31.62332 31.62332 0 0 0-6.58259-7.021 30.77664 30.77664 0 0 0-8.87031-4.90417 28.76913 28.76913 0 0 0-10.54975-1.71413zm-29.82949 40.51536a23.20517 23.20517 0 0 0 3.18992 8.83437 29.37422 29.37422 0 0 0 6.68483 7.66106 31.99084 31.99084 0 0 0 9.40919 5.34026 31.483 31.483 0 0 0 11.3536 1.95 30.70952 30.70952 0 0 0 9.87691-1.74814 31.8437 31.8437 0 0 0 7.65867-4.03072 41.92058 41.92058 0 0 0 5.84436-5.1059l14.9173 14.10732A109.746 109.746 0 0 1 802.527 149.0289a52.25044 52.25044 0 0 1-12.36328 6.04688 46.94038 46.94038 0 0 1-14.71455 2.2826 54.14686 54.14686 0 0 1-37.62461-15.1171 52.92785 52.92785 0 0 1-11.62516-16.52693 51.223 51.223 0 0 1-.23538-40.85241 52.41653 52.41653 0 0 1 11.52258-16.76255 53.48176 53.48176 0 0 1 59.7645-10.21293 51.61214 51.61214 0 0 1 17.06673 12.8344A54.8387 54.8387 0 0 1 825.1 89.76827a61.89813 61.89813 0 0 1 2.75678 23.65024zM864.42718 127.99785a23.5905 23.5905 0 0 1-3.79523-6.85176 38.87106 38.87106 0 0 1-1.8134-7.59454 61.9681 61.9681 0 0 1-.60519-6.95421c-.03275-2.1168-.06652-3.76122-.03275-4.937V74.71781h23.98513V55.5701H858.18061V31.78454H837.62079v70.48005A97.96515 97.96515 0 0 0 838.83015 118.76a52.83667 52.83667 0 0 0 4.06336 13.90865 36.15967 36.15967 0 0 0 7.62513 11.01769 52.22241 52.22241 0 0 0 8.66857 7.05349 45.067 45.067 0 0 0 10.818 5.00674 55.35168 55.35168 0 0 0 13.77231 2.21686V137.0352a36.88767 36.88767 0 0 1-6.01095-.87469 25.67559 25.67559 0 0 1-6.78751-2.58462 23.25442 23.25442 0 0 1-6.55189-5.578zM955.67412 69.88005A29.782 29.782 0 0 0 945.4613 56.87873c-4.36652-2.99013-9.876-4.50162-16.59573-4.53437a31.5027 31.5027 0 0 0-11.1181 2.04913 29.72966 29.72966 0 0 0-9.33937 5.67629 27.35466 27.35466 0 0 0-6.4516 8.66755 26.13419 26.13419 0 0 0-2.51912 11.01974 26.49041 26.49041 0 0 0 1.781 9.43956 27.92817 27.92817 0 0 0 11.12 13.539 38.25668 38.25668 0 0 0 8.26307 3.76248c2.9236.94 5.84527 1.81352 8.73521 2.5878a50.018 50.018 0 0 1 7.96093 2.82012 15.88594 15.88594 0 0 1 5.94659 4.43509 13.28236 13.28236 0 0 1 2.75473 7.55952 11.6648 11.6648 0 0 1-1.41119 6.75169 14.038 14.038 0 0 1-4.49958 4.70448 17.874 17.874 0 0 1-6.14945 2.48535 16.6 16.6 0 0 1-6.2825.16579 19.435 19.435 0 0 1-8.39725-3.49183 20.19967 20.19967 0 0 1-5.64457-6.45159 42.28691 42.28691 0 0 1-3.69469-9.00131L892.181 129.14068a40.436 40.436 0 0 0 13.84111 20.49238 37.75184 37.75184 0 0 0 24.25452 8.12991 43.611 43.611 0 0 0 15.52055-2.92269 35.5258 35.5258 0 0 0 11.52463-7.25635 33.05888 33.05888 0 0 0 7.35574-10.214 32.10313 32.10313 0 0 0 2.88767-11.75819 29.48339 29.48339 0 0 0-1.81352-11.79072 34.0562 34.0562 0 0 0-6.18016-10.88465 31.06877 31.06877 0 0 0-9.74158-7.3231 69.37967 69.37967 0 0 0-14.51294-4.9716c-1.24324-.302-2.78851-.70662-4.602-1.20947a31.77714 31.77714 0 0 1-5.409-2.15159 12.97094 12.97094 0 0 1-4.36869-3.52572 7.84524 7.84524 0 0 1-1.54526-5.40906 7.26548 7.26548 0 0 1 1.8474-4.50162 10.17568 10.17568 0 0 1 4.16685-2.88982 9.378 9.378 0 0 1 5.073-.4701 10.44286 10.44286 0 0 1 4.9708 2.65535 17.04729 17.04729 0 0 1 3.89757 5.81047l16.32634-9.0701zM1047.72581 67.86366a43.93529 43.93529 0 0 1 8.60206-8.83437 33.263 33.263 0 0 1 10.11047-5.24008 42.47 42.47 0 0 1 12.32939-1.85059 40.42891 40.42891 0 0 1 17.80519 3.4625 34.106 34.106 0 0 1 12.66541 9.91068 44.16871 44.16871 0 0 1 7.55861 14.88148 65.38569 65.38569 0 0 1 2.48523 18.31v56.03387h-20.5597v-55.229a51.9602 51.9602 0 0 0-.97385-10.41352 27.78021 27.78021 0 0 0-3.325-8.70132 16.66624 16.66624 0 0 0-6.14945-5.98036 18.86581 18.86581 0 0 0-9.50642-2.11691 20.78871 20.78871 0 0 0-10.58239 2.68821 16.91794 16.91794 0 0 0-6.7874 8.29888c-1.578 3.79523-2.34911 8.73317-2.38505 14.815v56.63906H1038.453V97.49347a33.69487 33.69487 0 0 0-2.216-12.59559 19.00944 19.00944 0 0 0-6.78535-8.8039c-3.09258-2.15057-6.98708-3.22358-11.758-3.19083a19.426 19.426 0 0 0-11.18667 3.05676 17.9328 17.9328 0 0 0-6.58578 8.66846A38.36978 38.36978 0 0 0 997.739 98.3005v56.23662H976.97649V96.88942a54.57357 54.57357 0 0 1 3.09053-18.7463 39.0354 39.0354 0 0 1 8.43205-13.73854 35.94083 35.94083 0 0 1 12.53237-8.46582 41.86266 41.86266 0 0 1 15.45278-2.99035 46.26538 46.26538 0 0 1 13.50292 1.74711 29.59478 29.59478 0 0 1 8.768 4.13091 30.50554 30.50554 0 0 1 5.44283 4.90644q2.06768 2.46834 3.52788 4.13079zM1152.35013 55.5701v98.967h-20.55981V55.5701zm-23.5828-20.76269a13.34576 13.34576 0 0 1 1.747-7.18971 12.02446 12.02446 0 0 1 4.73734-4.43521 14.75547 14.75547 0 0 1 6.21382-1.64465 14.30006 14.30006 0 0 1 6.28262 1.2421 12.00925 12.00925 0 0 1 4.94 4.1333 13.1902 13.1902 0 0 1 2.08087 7.08737 13.3826 13.3826 0 0 1-1.67843 7.29024 11.97624 11.97624 0 0 1-4.7046 4.46784 14.39031 14.39031 0 0 1-12.56295.40233 11.69412 11.69412 0 0 1-4.93885-4.19948 13.07408 13.07408 0 0 1-2.1168-7.15413zM1193.59542 127.99785a23.58448 23.58448 0 0 1-3.794-6.85176 38.87613 38.87613 0 0 1-1.81466-7.59454 62.276 62.276 0 0 1-.60428-6.95421c-.03365-2.1168-.06743-3.76122-.03365-4.937V74.71781h23.985V55.5701h-23.985V31.78454H1166.789v70.48005a98.19143 98.19143 0 0 0 1.20935 16.49543 52.8414 52.8414 0 0 0 4.0645 13.90865 36.13943 36.13943 0 0 0 7.625 11.01769 52.20964 52.20964 0 0 0 8.66755 7.05349 45.08715 45.08715 0 0 0 10.818 5.00674 55.36064 55.36064 0 0 0 13.77231 2.21686V137.0352a36.92113 36.92113 0 0 1-6.011-.87469 25.67416 25.67416 0 0 1-6.78751-2.58462 23.2797 23.2797 0 0 1-6.55189-5.578zM1269.48555 54.49368a41.04918 41.04918 0 0 1 16.36228 3.057 36.11278 36.11278 0 0 1 12.83132 9.1364 41.53348 41.53348 0 0 1 8.33266 14.61539A60.27273 60.27273 0 0 1 1310 100.78584v53.75128h-20.55982V101.18817a36.82422 36.82422 0 0 0-2.78748-14.915 20.07827 20.07827 0 0 0-7.795-9.104 21.68344 21.68344 0 0 0-11.79083-2.95623 22.0598 22.0598 0 0 0-11.756 3.35878 21.34464 21.34464 0 0 0-7.66095 9.24 35.14143 35.14143 0 0 0-2.75462 14.37648v53.34895h-20.55993V4.77313h20.55993V63.36205a48.79 48.79 0 0 1 7.625-4.93794 32.57643 32.57643 0 0 1 7.86143-2.88983 44.28534 44.28534 0 0 1 9.10387-1.0406z"/>
  <path d="M207.64721,164.63924l14.95785-10.48278c16.92532-11.86141,18.01262-22.20347,18.75408-38.32073.96193-23.39944,1.57132-41.58554,2.43933-63.54574l53.76068-37.75216H251.7444L147.94476,87.32365l-.53587.376-.53594-.376L120.4125,68.76891l-2.18742-1.54227L115.545,65.33873l-2.679,1.88791-2.185,1.54227-.00253.00372L78.37756,91.201c-.447-11.86207-.8409-22.9111-1.39285-36.292-.71992-17.40017,5.83316-20.736,15.69239-22.80547A397.80413,397.80413,0,0,1,147.63,24.61881a397.81271,397.81271,0,0,1,54.95346,7.48471,40.098,40.098,0,0,1,5.293,1.42675l27.0729-18.99244c-3.36172-2.13065-7.49454-3.32031-12.172-4.30132A543.97724,543.97724,0,0,0,147.63,0,543.98839,543.98839,0,0,0,72.48265,10.23651C59.00114,13.066,50.04076,17.62737,51.0231,41.4219c1.01744,24.60824,1.63915,43.45005,2.57759,66.98283L4.49092,142.50363l-.00182-.00113L0,145.66967H45.91039l69.10977-47.7002.53407-.36856.53029.37282,26.50127,18.5566,2.18994,1.53921,2.68441,1.88552,2.6733-1.88552,2.182-1.53921,65.33687-45.88022c-.48715,12.78146-.89467,24.40272-1.48053,38.67581-.54271,11.78669-1.33728,19.34983-13.71375,28.02373l-10.939,7.66564h-.00552L155.85,170.01622c-7.0859,4.96814-9.32463,4.98914-16.41239.01855L99.29931,141.89864h.013l-6.50981-4.549a37.79026,37.79026,0,0,1-7.78295-6.95934l-22.1374,15.27936a53.90759,53.90759,0,0,0,9.77336,8.48679L81.556,160.3774h-.01675l54.88865,38.47627c9.69134,6.797,12.75355,6.76731,22.44183-.02466l48.77021-34.18977Z"/>
</svg>
